<svg xmlns="http://www.w3.org/2000/svg" width="16" height="16" viewBox="0 0 16 16"><g transform="translate(0)"><path d="M11.5,16a4.458,4.458,0,0,1-1.529-.273,16.308,16.308,0,0,1-5.922-3.775A16.307,16.307,0,0,1,.274,6.03,4.426,4.426,0,0,1,.048,3.855,4.538,4.538,0,0,1,2.38.533,4.455,4.455,0,0,1,4.513,0,.5.5,0,0,1,5,.4l.785,3.662a.5.5,0,0,1-.135.458L4.311,5.857a13.161,13.161,0,0,0,5.833,5.833l1.341-1.341a.5.5,0,0,1,.458-.135L15.605,11a.5.5,0,0,1,.4.489,4.455,4.455,0,0,1-.533,2.133,4.538,4.538,0,0,1-3.322,2.332A4.447,4.447,0,0,1,11.5,16ZM4.114,1.022a3.5,3.5,0,0,0-2.9,4.667,15.165,15.165,0,0,0,9.1,9.1,3.5,3.5,0,0,0,4.667-2.9L12,11.248l-1.4,1.4a.5.5,0,0,1-.566.1,14.157,14.157,0,0,1-6.78-6.78.5.5,0,0,1,.1-.566L4.752,4Z" transform="translate(0 0)"/><path d="M248.252,8.747a.515.515,0,0,1-.515-.515,7.211,7.211,0,0,0-7.2-7.2.515.515,0,0,1,0-1.029,8.232,8.232,0,0,1,8.232,8.232A.515.515,0,0,1,248.252,8.747Z" transform="translate(-232.766)"/><path d="M246.194,70.689a.515.515,0,0,1-.515-.515,5.151,5.151,0,0,0-5.145-5.145.515.515,0,0,1,0-1.029,6.181,6.181,0,0,1,6.174,6.174A.515.515,0,0,1,246.194,70.689Z" transform="translate(-232.766 -61.942)"/><path d="M244.136,132.631a.515.515,0,0,1-.515-.515,3.091,3.091,0,0,0-3.087-3.087.515.515,0,0,1,0-1.029,4.121,4.121,0,0,1,4.116,4.116A.515.515,0,0,1,244.136,132.631Z" transform="translate(-232.605 -124.046)"/></g></svg>