<svg xmlns="http://www.w3.org/2000/svg" width="16" height="11.983" viewBox="0 0 16 11.983"><path d="M16,66.243v-.252a1.726,1.726,0,0,0-1.724-1.724H1.724A1.726,1.726,0,0,0,0,65.991v8.535A1.726,1.726,0,0,0,1.724,76.25H14.276A1.726,1.726,0,0,0,16,74.526V66.243ZM1.724,65.2H14.276a.787.787,0,0,1,.786.786h0L8.784,70.177a1.577,1.577,0,0,1-1.569,0L.938,65.991h0a.787.787,0,0,1,.786-.786ZM14.276,75.313H1.724a.787.787,0,0,1-.786-.786V67.118L6.7,70.957a2.509,2.509,0,0,0,2.609,0l5.758-3.839v7.409A.787.787,0,0,1,14.276,75.313Z" transform="translate(0 -64.267)"/></svg>