<svg xmlns="http://www.w3.org/2000/svg" width="24" height="24" viewBox="0 0 24 24">
    <path d="M211.569,209.285A2.285,2.285,0,1,1,209.285,207,2.285,2.285,0,0,1,211.569,209.285Zm0,0" transform="translate(-197.285 -197.285)"/>
    <path d="M146.446,137.065a2.27,2.27,0,0,0-1.3-1.3,3.792,3.792,0,0,0-1.272-.236c-.723-.033-.94-.04-2.77-.04s-2.047.007-2.77.04a3.8,3.8,0,0,0-1.272.236,2.271,2.271,0,0,0-1.3,1.3,3.794,3.794,0,0,0-.236,1.273c-.033.723-.04.939-.04,2.77s.007,2.047.04,2.77a3.792,3.792,0,0,0,.236,1.272,2.27,2.27,0,0,0,1.3,1.3,3.787,3.787,0,0,0,1.273.236c.723.033.939.04,2.769.04s2.047-.007,2.77-.04a3.787,3.787,0,0,0,1.273-.236,2.27,2.27,0,0,0,1.3-1.3,3.8,3.8,0,0,0,.236-1.272c.033-.723.04-.94.04-2.77s-.007-2.047-.04-2.77A3.787,3.787,0,0,0,146.446,137.065Zm-5.343,7.561a3.519,3.519,0,1,1,3.519-3.519A3.519,3.519,0,0,1,141.1,144.626Zm3.658-6.355a.822.822,0,1,1,.822-.822A.822.822,0,0,1,144.762,138.271Zm0,0" transform="translate(-129.103 -129.107)"/>
    <path d="M12,0A12,12,0,1,0,24,12,12,12,0,0,0,12,0Zm6.849,14.841a5.055,5.055,0,0,1-.32,1.673,3.523,3.523,0,0,1-2.015,2.015,5.059,5.059,0,0,1-1.672.32c-.735.034-.97.042-2.841.042s-2.106-.008-2.841-.042a5.059,5.059,0,0,1-1.672-.32,3.523,3.523,0,0,1-2.015-2.015,5.054,5.054,0,0,1-.32-1.672c-.034-.735-.042-.97-.042-2.841s.008-2.106.042-2.841a5.056,5.056,0,0,1,.32-1.673A3.526,3.526,0,0,1,7.486,5.471a5.06,5.06,0,0,1,1.673-.32c.735-.034.97-.042,2.841-.042s2.106.008,2.841.042a5.061,5.061,0,0,1,1.673.32,3.524,3.524,0,0,1,2.015,2.015,5.055,5.055,0,0,1,.32,1.673c.034.735.041.97.041,2.841S18.883,14.106,18.849,14.841Zm0,0"/>
</svg>